<?xml version="1.0" encoding="UTF-8" ?>
<!DOCTYPE svg PUBLIC "-//W3C//DTD SVG 1.1//EN" "http://www.w3.org/Graphics/SVG/1.1/DTD/svg11.dtd">
<svg width="545pt" height="547pt" viewBox="0 0 545 547" version="1.1" xmlns="http://www.w3.org/2000/svg">
<path fill="#ffffff" d=" M 0.00 0.00 L 545.00 0.00 L 545.00 547.00 L 0.00 547.00 L 0.00 0.00 Z" />
<path fill="#000000" d=" M 276.19 4.18 C 276.87 4.88 276.87 4.88 276.19 4.18 Z" />
<path fill="#000000" d=" M 267.59 5.68 C 269.94 4.57 273.13 4.52 275.46 5.73 C 276.47 5.95 277.46 6.26 278.43 6.65 C 278.92 6.90 279.91 7.41 280.41 7.66 C 282.20 8.44 283.53 9.89 284.72 11.40 C 285.41 10.88 286.09 10.35 286.76 9.81 C 286.79 10.55 286.85 12.02 286.88 12.76 C 312.51 38.56 338.54 64.01 364.22 89.77 C 365.23 90.80 366.29 91.85 367.70 92.30 C 368.74 95.76 372.52 96.80 374.77 99.23 C 390.72 115.37 406.96 131.24 422.81 147.46 L 422.90 148.55 C 423.49 147.94 424.09 147.32 424.70 146.72 C 424.75 147.49 424.86 149.05 424.91 149.82 C 432.57 156.64 439.16 164.59 446.79 171.46 L 446.89 172.56 C 447.49 171.94 448.09 171.32 448.71 170.72 C 448.75 171.49 448.85 173.03 448.89 173.80 C 456.72 180.70 463.72 188.51 471.25 195.76 C 480.91 205.42 490.59 215.07 500.23 224.76 C 500.93 225.45 501.76 225.97 502.70 226.30 C 502.96 226.77 503.47 227.71 503.72 228.18 C 513.81 238.50 524.15 248.58 534.14 258.99 C 535.99 260.76 538.23 262.21 539.43 264.55 C 539.72 265.54 540.00 266.54 540.26 267.54 C 541.68 269.73 540.77 272.54 541.03 274.99 C 541.25 276.69 540.46 278.17 539.79 279.66 C 537.23 284.65 533.23 288.57 528.98 292.13 C 514.63 306.39 500.60 320.98 486.23 335.23 C 485.14 336.30 483.93 337.38 483.72 338.99 C 483.36 338.99 482.65 339.01 482.29 339.01 C 481.47 341.63 479.01 344.23 476.45 344.90 C 477.06 345.49 477.66 346.09 478.27 346.69 C 477.51 346.75 475.99 346.86 475.23 346.92 C 465.27 357.70 454.51 367.75 444.25 378.25 C 441.81 381.12 438.29 383.21 436.71 386.70 C 432.63 388.73 430.23 393.01 426.52 395.62 C 405.58 416.31 385.10 437.46 364.24 458.23 C 363.54 458.93 363.03 459.75 362.70 460.70 C 360.42 461.55 358.63 463.45 357.67 465.66 C 355.46 466.63 353.55 468.41 352.70 470.70 C 348.96 471.49 348.64 476.22 345.30 477.29 C 342.68 481.83 338.14 485.04 334.54 488.81 L 333.45 488.90 C 334.06 489.49 334.67 490.08 335.27 490.69 C 334.51 490.75 332.99 490.86 332.23 490.92 C 329.76 494.15 326.58 496.73 323.81 499.69 C 326.60 499.92 323.80 501.36 323.34 502.25 L 322.73 500.89 C 320.98 502.37 319.35 504.01 317.87 505.76 L 319.26 506.31 C 318.38 506.77 316.88 509.65 316.71 506.80 C 308.22 515.28 299.73 523.75 291.26 532.26 C 288.61 535.14 285.39 537.68 281.55 538.71 C 280.52 538.93 279.54 539.26 278.60 539.70 C 277.05 540.71 275.28 541.12 273.45 541.16 C 272.45 542.27 271.48 542.25 270.54 541.10 C 267.72 541.56 265.52 540.29 263.38 538.69 C 257.05 536.24 255.17 528.60 249.30 525.70 C 248.42 523.43 246.56 521.57 244.31 520.70 C 243.42 518.44 241.56 516.56 239.29 515.70 C 238.61 512.56 234.20 512.66 233.71 509.30 C 228.08 506.05 224.73 499.97 219.69 495.91 C 219.02 495.87 217.67 495.81 217.00 495.78 C 217.17 495.39 217.51 494.60 217.68 494.21 C 213.67 490.55 210.62 486.00 206.54 482.40 C 188.81 464.83 171.02 447.31 153.30 429.72 C 151.74 428.26 150.38 426.41 148.29 425.70 C 147.81 422.22 143.03 422.44 142.71 419.01 C 142.29 419.00 141.44 418.99 141.01 418.99 C 141.01 418.56 141.00 417.71 141.00 417.29 C 138.89 417.15 138.16 415.34 137.26 413.77 C 134.23 412.15 131.87 409.60 129.77 406.94 C 129.03 406.87 127.54 406.74 126.79 406.67 C 127.30 406.11 127.81 405.55 128.32 404.99 C 126.91 404.18 125.40 403.70 123.79 403.55 C 124.37 403.01 124.95 402.47 125.54 401.94 C 122.63 401.14 120.75 398.12 118.77 395.92 C 118.01 395.86 116.49 395.75 115.72 395.70 C 116.34 395.07 116.96 394.46 117.59 393.86 L 116.43 393.90 C 115.99 393.39 115.09 392.36 114.64 391.85 C 113.98 391.84 112.67 391.82 112.01 391.81 C 113.93 390.04 111.38 389.42 109.83 389.53 C 110.39 389.01 110.94 388.51 111.50 388.01 C 110.99 387.68 109.98 387.01 109.47 386.68 C 89.97 367.81 71.03 348.36 51.75 329.26 C 49.93 327.73 47.27 326.90 46.71 324.30 C 45.77 323.97 44.94 323.46 44.23 322.76 C 33.26 311.74 22.25 300.75 11.24 289.76 C 10.57 289.06 10.06 288.27 9.70 287.37 C 8.42 284.17 5.30 281.92 4.72 278.46 C 3.45 276.72 4.14 274.46 4.05 272.47 C 5.57 271.26 4.70 269.12 5.20 267.50 C 13.87 254.39 25.86 243.98 36.81 232.84 C 110.55 158.90 184.72 85.39 258.26 11.26 C 260.14 9.73 262.25 8.47 264.35 7.25 C 265.44 6.76 266.51 6.22 267.59 5.68 Z" />
<path fill="#fdfef7" d=" M 267.59 17.78 C 274.56 15.15 281.58 19.79 286.69 24.21 C 301.06 37.55 314.25 52.10 328.23 65.85 C 370.34 108.06 412.53 150.19 454.37 192.66 C 459.85 198.19 465.26 203.77 470.56 209.46 C 485.71 224.67 501.76 238.98 516.25 254.84 C 520.48 259.61 525.09 264.62 526.24 271.14 C 527.44 275.35 525.59 279.73 522.78 282.85 C 513.33 294.29 502.52 304.52 492.24 315.20 C 428.14 379.46 363.76 443.44 299.88 507.92 C 293.68 514.45 287.54 521.60 278.89 524.90 C 273.99 526.71 268.06 528.63 263.17 525.85 C 252.35 518.14 243.52 508.12 234.28 498.66 C 223.70 487.24 213.09 475.86 201.99 464.94 C 143.58 406.38 85.54 347.44 26.34 289.68 C 23.39 286.52 18.97 284.15 18.34 279.46 C 17.58 273.93 17.34 267.56 21.03 262.94 C 24.95 257.94 29.82 253.80 34.29 249.32 C 74.62 208.64 114.92 167.93 155.25 127.25 C 162.13 120.48 169.48 114.21 176.55 107.65 C 199.94 83.02 223.71 58.74 247.70 34.70 C 254.06 28.74 259.88 22.06 267.59 17.78 Z" />
<path fill="#000000" d=" M 266.42 32.78 C 270.61 30.66 275.43 31.28 279.86 32.11 C 282.58 33.70 284.64 36.16 286.92 38.29 C 359.13 110.33 431.10 182.61 503.10 254.85 C 507.26 258.96 512.27 263.08 513.59 269.07 C 513.43 273.65 513.20 278.61 510.51 282.53 C 506.69 288.27 500.99 292.32 496.29 297.26 C 444.29 348.95 392.93 401.28 341.33 453.36 C 325.24 469.58 309.78 486.43 292.89 501.83 C 287.72 506.96 281.48 510.89 274.85 513.82 C 268.56 516.50 262.78 511.49 258.23 507.75 C 243.94 495.43 231.25 481.42 217.84 468.17 C 161.87 411.47 105.80 354.86 49.83 298.15 C 42.64 291.90 33.48 286.56 30.18 277.10 C 29.85 273.43 30.84 269.60 32.15 266.17 C 36.05 260.23 41.30 255.32 46.17 250.18 C 85.04 210.38 124.53 171.19 163.79 131.76 C 172.64 122.61 182.41 114.41 191.69 105.71 C 211.18 85.84 230.62 65.92 250.20 46.14 C 255.18 41.22 259.76 35.51 266.42 32.78 Z" />
<path fill="#fcfdf8" d=" M 271.44 46.52 C 275.33 45.29 279.63 49.01 278.99 53.04 C 278.50 57.11 273.30 59.68 269.87 57.26 C 265.53 54.84 266.69 47.69 271.44 46.52 Z" />
<path fill="#c20302" d=" M 203.69 119.78 C 204.88 119.30 206.07 118.82 207.26 118.34 C 210.66 120.86 213.24 124.78 213.41 129.08 C 212.96 132.00 211.24 134.53 210.21 137.27 C 208.19 138.17 206.04 138.64 203.87 138.99 C 200.45 139.54 197.19 140.81 194.12 142.40 C 188.32 145.22 182.50 149.45 181.26 156.21 C 181.04 156.47 180.60 156.97 180.38 157.22 C 177.27 155.16 172.99 154.32 171.12 150.81 C 172.91 150.09 174.78 149.63 176.70 149.40 C 176.66 147.04 176.58 144.63 177.50 142.41 C 178.94 142.47 180.38 142.53 181.82 142.60 C 180.90 140.74 180.53 138.72 180.54 136.66 C 181.92 136.69 183.30 136.72 184.68 136.75 C 184.47 133.88 184.50 130.97 185.58 128.25 C 186.75 128.41 187.93 128.56 189.11 128.73 C 189.69 131.06 190.74 133.24 192.27 135.10 C 194.02 130.78 194.61 126.11 195.66 121.59 C 196.91 121.42 198.16 121.25 199.42 121.08 L 199.43 122.06 C 199.47 124.33 199.50 126.59 199.53 128.86 C 200.00 128.78 200.94 128.61 201.41 128.53 C 202.14 126.01 202.84 123.47 203.42 120.91 C 203.49 120.62 203.62 120.06 203.69 119.78 Z" />
<path fill="#450000" d=" M 201.65 122.53 C 202.09 122.12 202.98 121.31 203.42 120.91 C 202.84 123.47 202.14 126.01 201.41 128.53 C 200.94 128.61 200.00 128.78 199.53 128.86 C 199.50 126.59 199.47 124.33 199.43 122.06 C 200.17 122.22 200.91 122.37 201.65 122.53 Z" />
<path fill="#fffef7" d=" M 302.18 130.27 C 304.14 126.59 307.36 123.64 311.07 121.78 L 311.74 123.01 C 310.64 130.16 306.74 137.80 310.15 144.89 C 314.43 151.58 320.60 157.24 323.10 164.97 C 324.84 172.49 322.25 180.21 319.22 187.05 C 317.82 190.40 314.99 192.89 311.74 194.38 C 312.11 188.57 313.10 182.31 310.20 176.95 C 305.80 168.63 298.05 161.82 296.58 152.15 C 294.96 144.39 298.23 136.77 302.18 130.27 Z" />
<path fill="#eaff1c" d=" M 194.12 142.40 C 197.19 140.81 200.45 139.54 203.87 138.99 C 206.91 138.51 209.96 137.96 213.04 137.92 C 217.04 138.24 220.73 139.97 224.30 141.67 C 230.76 144.86 237.01 148.99 241.25 154.94 C 246.80 162.68 251.90 170.89 255.11 179.90 C 257.66 187.26 258.40 195.08 258.62 202.81 C 261.79 210.37 265.76 217.71 270.97 224.07 C 274.28 228.36 279.73 229.86 284.65 231.45 C 296.08 234.73 308.37 237.22 320.13 234.18 C 329.57 231.94 338.71 228.53 347.57 224.63 C 358.04 218.76 367.05 210.70 376.85 203.84 C 383.28 199.60 388.96 194.36 395.36 190.10 C 397.78 192.75 396.36 196.44 395.54 199.44 C 392.21 209.05 383.71 215.51 378.76 224.19 C 386.53 218.98 392.90 212.00 399.74 205.68 C 400.96 204.49 402.47 203.66 404.19 203.45 C 404.30 211.54 399.21 218.31 394.69 224.55 C 393.60 225.77 392.89 227.59 391.25 228.16 C 389.62 228.48 387.11 229.76 388.35 231.78 C 388.50 233.36 389.93 231.98 390.49 231.59 C 395.95 227.04 401.32 222.31 407.35 218.50 C 407.68 225.06 403.86 230.86 399.85 235.71 C 399.82 235.74 399.77 235.81 399.74 235.85 C 397.94 238.22 396.17 240.62 394.32 242.95 C 398.66 240.66 403.12 238.64 407.52 236.47 C 408.26 242.42 402.30 244.84 398.86 248.39 C 393.60 247.73 388.29 247.88 383.00 247.93 C 319.93 247.88 256.87 248.11 193.80 247.92 C 197.76 232.30 203.51 217.23 209.23 202.19 C 212.81 193.64 213.41 183.35 209.10 174.95 C 207.93 171.88 207.15 168.44 204.14 166.60 L 204.08 166.53 C 200.76 160.62 193.91 157.56 187.54 156.17 C 187.13 157.92 186.81 159.70 186.19 161.40 C 183.52 163.19 180.02 162.52 176.97 162.77 C 179.77 159.82 182.66 156.81 183.98 152.86 C 185.60 147.82 191.65 146.80 194.12 142.40 Z" />
<path fill="#e7d33d" d=" M 181.26 156.21 C 182.50 149.45 188.32 145.22 194.12 142.40 C 191.65 146.80 185.60 147.82 183.98 152.86 C 182.66 156.81 179.77 159.82 176.97 162.77 C 180.02 162.52 183.52 163.19 186.19 161.40 C 186.81 159.70 187.13 157.92 187.54 156.17 C 193.91 157.56 200.76 160.62 204.08 166.53 C 200.75 164.26 197.71 161.54 194.09 159.73 C 191.97 158.67 189.78 157.77 187.59 156.86 C 187.96 157.76 188.34 158.66 188.72 159.56 C 188.30 160.92 187.86 162.28 187.50 163.66 C 182.97 163.43 178.56 164.26 174.30 165.72 C 174.21 165.39 174.04 164.73 173.95 164.41 C 175.73 161.71 178.19 159.57 180.38 157.22 C 180.60 156.97 181.04 156.47 181.26 156.21 Z" />
<path fill="#a74002" d=" M 187.59 156.86 C 189.78 157.77 191.97 158.67 194.09 159.73 C 192.30 159.61 190.51 159.58 188.72 159.56 C 188.34 158.66 187.96 157.76 187.59 156.86 Z" />
<path fill="#c20203" d=" M 188.72 159.56 C 190.51 159.58 192.30 159.61 194.09 159.73 C 197.71 161.54 200.75 164.26 204.08 166.53 L 204.14 166.60 C 206.14 169.23 207.02 172.39 207.74 175.55 C 206.15 177.73 204.37 179.77 202.31 181.51 C 199.48 181.51 196.65 181.52 193.82 181.46 C 191.56 179.61 188.89 177.87 187.96 174.94 C 186.85 171.32 186.78 167.36 187.50 163.66 C 187.86 162.28 188.30 160.92 188.72 159.56 Z" />
<path fill="#e1ec4c" d=" M 204.14 166.60 C 207.15 168.44 207.93 171.88 209.10 174.95 C 213.41 183.35 212.81 193.64 209.23 202.19 C 203.51 217.23 197.76 232.30 193.80 247.92 C 256.87 248.11 319.93 247.88 383.00 247.93 C 388.29 247.88 393.60 247.73 398.86 248.39 C 396.78 249.65 394.29 249.09 392.00 249.20 C 325.26 249.17 258.52 249.19 191.77 249.19 C 196.47 232.05 202.66 215.38 208.94 198.77 C 211.97 191.27 211.67 182.66 207.74 175.55 C 207.02 172.39 206.14 169.23 204.14 166.60 Z" />
<path fill="#015201" d=" M 279.71 178.04 C 281.31 172.80 284.86 167.42 290.54 166.17 C 290.02 169.79 288.82 173.30 288.60 176.97 C 288.43 180.43 291.56 182.54 292.85 185.44 C 293.96 188.65 296.70 191.01 297.81 194.17 C 297.82 199.01 295.12 203.33 292.37 207.13 C 291.35 203.51 291.48 198.86 287.69 196.86 C 282.48 192.26 278.34 185.21 279.71 178.04 Z" />
<path fill="#114814" d=" M 292.85 185.44 C 296.01 187.66 299.35 190.79 299.22 194.98 C 298.99 200.97 295.49 206.27 291.61 210.61 C 291.36 210.58 290.87 210.53 290.62 210.51 C 289.81 205.92 290.00 201.07 287.69 196.86 C 291.48 198.86 291.35 203.51 292.37 207.13 C 295.12 203.33 297.82 199.01 297.81 194.17 C 296.70 191.01 293.96 188.65 292.85 185.44 Z" />
<path fill="#000000" d=" M 499.07 221.07 C 500.43 220.94 501.05 221.56 500.93 222.93 C 499.55 223.05 498.94 222.44 499.07 221.07 Z" />
<path fill="#edf747" d=" M 388.35 231.78 C 387.11 229.76 389.62 228.48 391.25 228.16 C 391.60 229.49 389.81 232.05 388.35 231.78 Z" />
<path fill="#e8f373" d=" M 399.74 235.85 C 399.77 235.81 399.82 235.74 399.85 235.71 C 399.82 235.74 399.77 235.81 399.74 235.85 Z" />
<path fill="#c20102" d=" M 231.38 279.99 C 231.62 272.23 230.92 264.42 231.76 256.70 C 232.94 268.53 231.68 280.46 232.51 292.31 C 233.79 280.97 232.41 269.50 233.15 258.11 C 236.69 257.88 240.24 257.86 243.79 258.06 C 243.64 271.76 244.11 285.47 243.63 299.17 C 243.43 302.60 240.91 305.25 238.60 307.54 C 233.16 312.89 224.75 313.63 217.62 312.16 C 209.40 310.05 203.65 302.20 202.71 293.98 C 202.79 292.80 203.04 291.65 203.48 290.53 C 207.76 290.71 212.05 290.69 216.33 290.64 C 217.10 293.29 217.69 296.25 219.91 298.13 C 221.84 300.02 224.74 299.32 227.16 299.49 C 228.25 298.51 229.35 297.55 230.46 296.59 C 231.95 291.17 231.24 285.52 231.38 279.99 Z" />
<path fill="#af1515" d=" M 231.76 256.70 C 236.28 256.78 240.81 256.72 245.34 256.72 C 245.34 269.51 245.39 282.31 245.31 295.10 C 245.47 296.69 244.51 297.97 243.63 299.17 C 244.11 285.47 243.64 271.76 243.79 258.06 C 240.24 257.86 236.69 257.88 233.15 258.11 C 232.41 269.50 233.79 280.97 232.51 292.31 C 231.68 280.46 232.94 268.53 231.76 256.70 Z" />
<path fill="#a71516" d=" M 246.58 256.65 C 257.81 256.60 269.05 256.55 280.28 256.68 C 280.30 261.28 280.27 265.91 279.48 270.45 C 273.17 270.33 266.86 270.31 260.55 270.41 C 260.54 273.12 260.50 275.82 260.43 278.52 L 259.07 278.47 C 258.35 275.40 258.65 272.24 259.14 269.17 C 265.53 268.28 271.99 268.85 278.40 268.41 C 278.63 264.96 278.72 261.51 278.69 258.05 C 268.45 257.48 258.18 257.76 247.94 257.94 C 247.71 273.27 248.14 288.61 247.65 303.94 C 247.42 307.05 248.01 310.14 249.74 312.76 C 248.93 312.74 247.30 312.70 246.49 312.68 C 246.54 294.00 246.60 275.32 246.58 256.65 Z" />
<path fill="#c20101" d=" M 280.89 257.29 C 286.91 257.06 292.93 257.17 298.96 257.16 C 304.42 257.11 309.59 259.78 313.07 263.92 C 317.67 268.29 318.08 275.14 317.17 281.04 C 316.04 286.14 311.73 289.33 308.19 292.76 C 311.24 297.77 314.62 302.58 317.46 307.72 C 317.94 307.66 318.91 307.54 319.39 307.48 C 318.91 296.98 320.07 286.41 318.64 275.97 C 319.61 269.71 319.46 263.34 319.21 257.03 C 319.57 257.31 320.31 257.86 320.68 258.14 C 324.49 258.11 328.30 257.69 332.11 258.00 C 332.08 263.14 331.81 268.29 332.22 273.42 L 333.16 272.76 C 338.31 268.31 340.77 261.28 345.97 256.88 C 350.85 256.50 355.75 256.95 360.64 256.64 C 360.68 257.79 360.82 259.03 359.93 259.93 C 354.34 267.67 348.78 275.44 343.08 283.09 C 341.79 284.70 342.64 286.85 343.91 288.18 C 348.26 293.44 352.65 298.67 356.93 304.00 C 359.12 306.78 361.62 309.37 363.20 312.58 C 357.56 312.63 351.89 312.83 346.26 312.50 C 341.80 307.49 337.60 302.22 333.60 296.83 C 333.03 302.03 333.38 307.27 333.42 312.49 C 323.61 312.70 313.76 312.94 303.96 312.37 C 301.58 307.33 297.90 303.04 295.59 297.95 C 295.01 302.77 295.22 307.64 295.30 312.48 C 290.66 312.73 286.01 312.58 281.37 312.70 C 280.46 307.20 280.34 301.58 281.30 296.08 C 281.03 286.73 282.00 277.30 280.55 268.02 C 280.41 264.44 280.74 260.86 280.89 257.29 Z" />
<path fill="#ab1615" d=" M 319.21 257.03 C 323.86 256.48 328.56 256.78 333.24 256.79 C 333.21 262.11 333.60 267.46 333.16 272.76 L 332.22 273.42 C 331.81 268.29 332.08 263.14 332.11 258.00 C 328.30 257.69 324.49 258.11 320.68 258.14 C 320.31 257.86 319.57 257.31 319.21 257.03 Z" />
<path fill="#c20101" d=" M 247.94 257.94 C 258.18 257.76 268.45 257.48 278.69 258.05 C 278.72 261.51 278.63 264.96 278.40 268.41 C 271.99 268.85 265.53 268.28 259.14 269.17 C 258.65 272.24 258.35 275.40 259.07 278.47 L 260.43 278.52 C 265.18 278.77 270.07 278.01 274.74 278.80 C 275.65 282.73 274.97 286.80 275.25 290.79 C 269.98 290.58 264.68 290.45 259.45 291.29 C 259.49 294.03 259.57 296.78 259.83 299.51 C 266.41 299.32 272.99 299.57 279.57 299.43 C 280.31 303.76 280.25 308.16 280.59 312.53 C 270.31 312.86 260.02 312.45 249.74 312.76 C 248.01 310.14 247.42 307.05 247.65 303.94 C 248.14 288.61 247.71 273.27 247.94 257.94 Z" />
<path fill="#73080d" d=" M 259.45 291.29 C 264.68 290.45 269.98 290.58 275.25 290.79 C 274.54 292.10 273.45 292.63 271.98 292.36 C 268.47 292.22 264.94 291.51 261.43 292.15 C 261.16 294.64 261.31 297.35 259.83 299.51 C 259.57 296.78 259.49 294.03 259.45 291.29 Z" />
<path fill="#555a01" d=" M 214.45 319.66 C 218.62 318.97 222.86 319.06 227.08 319.10 C 266.37 319.10 305.66 319.13 344.96 319.10 C 350.11 319.12 355.29 318.84 360.41 319.64 C 353.61 320.17 346.78 319.90 339.97 319.94 C 300.67 319.95 261.37 319.92 222.06 319.95 C 219.52 319.93 216.98 319.81 214.45 319.66 Z" />
<path fill="#e6f053" d=" M 214.45 319.66 C 216.98 319.81 219.52 319.93 222.06 319.95 C 261.37 319.92 300.67 319.95 339.97 319.94 C 346.78 319.90 353.61 320.17 360.41 319.64 C 356.56 324.73 352.63 329.78 348.25 334.43 C 347.88 332.13 349.86 330.69 351.19 329.16 C 353.47 326.81 355.35 324.13 357.17 321.42 C 310.81 321.09 264.45 321.28 218.09 321.31 C 218.33 322.11 218.81 323.71 219.05 324.52 C 217.40 323.01 215.88 321.37 214.45 319.66 Z" />
<path fill="#eaff1c" d=" M 218.09 321.31 C 264.45 321.28 310.81 321.09 357.17 321.42 C 355.35 324.13 353.47 326.81 351.19 329.16 C 349.86 330.69 347.88 332.13 348.25 334.43 C 349.25 340.89 350.03 347.89 346.94 353.94 C 344.25 361.42 337.45 366.17 331.43 370.87 C 331.00 376.89 330.95 382.94 330.50 388.96 C 330.24 394.39 329.50 399.92 330.69 405.30 C 334.46 405.75 338.41 406.57 341.28 409.27 L 340.87 410.35 C 340.83 411.01 340.75 412.34 340.71 413.00 C 337.86 411.68 334.74 407.99 331.58 410.60 C 324.92 414.76 318.87 419.83 312.88 424.89 C 311.65 425.33 310.41 425.74 309.17 426.13 C 308.71 420.56 314.73 418.20 316.02 413.27 C 308.87 414.35 301.77 415.78 294.79 417.68 L 295.74 418.27 L 295.96 418.41 C 291.40 419.77 287.77 423.76 282.90 423.88 C 283.90 420.21 287.44 418.29 290.37 416.31 C 293.90 414.16 297.37 411.79 301.28 410.39 C 303.43 409.57 306.15 409.85 307.80 408.01 L 308.44 407.45 C 304.80 406.86 301.12 406.74 297.46 406.60 C 305.44 403.09 314.42 405.75 322.64 403.38 C 324.42 402.84 325.10 400.81 325.25 399.14 C 325.98 391.06 324.71 382.99 323.55 375.02 C 322.96 368.93 318.54 363.97 313.79 360.51 C 311.02 358.52 309.43 355.41 307.07 353.03 C 304.99 352.77 302.97 353.63 300.95 353.97 C 295.66 355.25 290.23 355.76 284.80 355.84 C 282.22 359.60 278.82 362.93 274.39 364.36 C 271.72 365.75 268.13 365.58 266.19 368.14 C 260.51 375.06 254.01 381.48 250.06 389.63 C 254.76 390.46 260.46 391.42 262.21 396.68 C 256.86 396.46 251.36 394.85 246.10 396.54 C 241.48 397.83 237.99 401.27 233.93 403.62 C 231.00 405.31 228.22 407.26 225.25 408.89 C 226.23 402.76 231.83 398.65 236.35 394.88 C 229.82 394.15 223.35 395.50 216.92 396.35 C 212.17 396.97 207.94 399.32 203.63 401.24 C 204.49 397.82 206.30 394.06 209.96 392.98 C 215.96 390.96 222.43 391.30 228.57 389.83 C 223.87 388.50 218.96 388.75 214.15 388.23 C 215.39 388.06 216.65 387.36 217.08 386.13 L 217.35 385.58 C 226.27 384.65 235.15 385.90 243.98 387.00 C 247.57 381.37 251.16 375.72 255.32 370.49 C 256.69 368.79 257.76 366.88 258.62 364.89 C 252.39 361.96 246.02 358.76 241.27 353.66 C 237.82 349.25 233.83 344.81 233.19 339.02 C 229.00 334.55 224.36 330.51 220.24 325.96 C 220.21 325.93 220.15 325.87 220.12 325.83 C 219.85 325.50 219.32 324.85 219.05 324.52 C 218.81 323.71 218.33 322.11 218.09 321.31 Z" />
<path fill="#f1fd77" d=" M 220.12 325.83 C 220.15 325.87 220.21 325.93 220.24 325.96 C 220.21 325.93 220.15 325.87 220.12 325.83 Z" />
<path fill="#000000" d=" M 483.19 340.19 C 483.87 340.87 483.87 340.87 483.19 340.19 Z" />
<path fill="#d5de48" d=" M 313.79 360.51 C 318.54 363.97 322.96 368.93 323.55 375.02 C 324.71 382.99 325.98 391.06 325.25 399.14 C 325.10 400.81 324.42 402.84 322.64 403.38 C 314.42 405.75 305.44 403.09 297.46 406.60 C 301.12 406.74 304.80 406.86 308.44 407.45 L 307.80 408.01 C 304.02 408.87 299.89 408.05 295.99 408.81 C 293.22 408.23 296.38 405.16 297.83 404.73 C 305.67 402.08 314.25 404.50 322.25 402.49 C 323.91 401.63 323.60 399.62 323.75 398.09 C 323.94 390.68 323.64 383.27 322.83 375.91 C 321.74 369.86 317.28 365.30 313.79 360.51 Z" />
<path fill="#d9e27a" d=" M 214.15 388.23 C 213.50 386.76 215.88 385.35 217.08 386.13 C 216.65 387.36 215.39 388.06 214.15 388.23 Z" />
<path fill="#fffef7" d=" M 340.87 410.35 C 343.15 409.25 342.95 414.78 340.71 413.00 C 340.75 412.34 340.83 411.01 340.87 410.35 Z" />
<path fill="#000000" d=" M 110.18 413.19 C 110.87 413.87 110.87 413.87 110.18 413.19 Z" />
<path fill="#c5ce42" d=" M 294.79 417.68 C 301.77 415.78 308.87 414.35 316.02 413.27 C 314.73 418.20 308.71 420.56 309.17 426.13 C 310.41 425.74 311.65 425.33 312.88 424.89 C 311.74 426.63 310.54 428.38 308.94 429.75 C 306.97 428.29 307.46 425.36 308.12 423.34 C 309.80 419.70 312.64 416.80 315.33 413.90 C 308.91 415.81 302.30 416.99 295.74 418.27 L 294.79 417.68 Z" />
<path fill="#000000" d=" M 140.18 423.19 C 140.87 423.87 140.87 423.87 140.18 423.19 Z" />
<path fill="#000000" d=" M 349.19 475.19 C 349.87 475.87 349.87 475.87 349.19 475.19 Z" />
<path fill="#fcfdf6" d=" M 269.19 487.21 C 272.92 485.52 277.51 488.99 277.09 492.99 C 277.40 497.67 271.03 500.45 267.62 497.40 C 263.96 494.87 265.00 488.56 269.19 487.21 Z" />
<path fill="#000000" d=" M 236.19 514.19 C 236.88 514.87 236.88 514.87 236.19 514.19 Z" />
<path fill="#000000" d=" M 246.18 524.18 C 246.87 524.87 246.87 524.87 246.18 524.18 Z" />
</svg>
